<svg t="1772524056632" class="icon" viewBox="0 0 1024 1024" version="1.1" xmlns="http://www.w3.org/2000/svg" p-id="4742" width="600" height="600"><path d="M276.48 302.08h159.232v17.92c0 15.36 12.288 27.648 27.648 27.648h103.936c7.168 0 14.336-3.072 19.456-8.192s8.192-12.288 8.192-19.456V302.08h159.232c12.8 0 24.576-7.68 29.184-19.456 5.12-11.776 2.048-25.6-6.656-34.816L538.112 9.216c-12.288-12.288-32.768-12.288-45.056 0L254.464 247.808c-9.216 9.216-11.776 22.528-7.168 34.816 5.12 11.776 16.384 19.456 29.184 19.456z m477.696 412.672h-159.232v-17.92c0-15.36-12.288-27.648-27.648-27.648H463.36c-7.168 0-14.336 3.072-19.456 8.192s-8.192 12.288-8.192 19.456v17.92h-158.72c-28.16 0-42.496 34.304-22.528 54.272l238.592 238.592c6.144 6.144 13.824 9.216 22.528 9.216 8.192 0 16.384-3.584 22.528-9.216l238.592-238.592c19.968-19.968 5.632-54.272-22.528-54.272z m242.176-245.76h-401.408v-12.288c0-15.36-12.288-27.648-27.648-27.648H463.36c-15.36 0-27.648 12.288-27.648 27.648v12.288H34.304c-15.36 0-27.648 12.288-27.648 27.648v24.576c0 15.36 12.288 27.648 27.648 27.648h401.408v12.288c0 15.36 12.288 27.648 27.648 27.648h103.936c15.36 0 27.648-12.288 27.648-27.648v-12.288h401.408c15.36 0 27.648-12.288 27.648-27.648V496.64c0-15.36-12.288-27.648-27.648-27.648z m0 0" p-id="4743"></path></svg>