<svg t="1772096232878" class="icon" viewBox="0 0 1024 1024" version="1.1" xmlns="http://www.w3.org/2000/svg" p-id="1756" width="200" height="200"><path d="M512 512m-414 0a414 414 0 1 0 828 0 414 414 0 1 0-828 0Z" fill="#F0C48A" p-id="1757"></path><path d="M512 11.8C235.8 11.8 11.8 235.8 11.8 512s224 500.2 500.2 500.2 500.2-224 500.2-500.2S788.2 11.8 512 11.8z m0 709.6c-115.6 0-209.4-93.8-209.4-209.4 0-115.6 93.8-209.4 209.4-209.4S721.4 396.4 721.4 512c0 115.6-93.8 209.4-209.4 209.4z" fill="#7BABF1" p-id="1758"></path><path d="M462.8 14.2C209.6 38.8 11.8 252.4 11.8 512s197.8 473.2 451 497.8C716 985.2 913.8 771.6 913.8 512S716 38.8 462.8 14.2zM512 721.4c-17 0-33.4-2-49.2-5.8-15.8 3.8-32.2 5.8-49.2 5.8-115.6 0-209.4-93.8-209.4-209.4 0-115.6 93.8-209.4 209.4-209.4 17 0 33.4 2 49.2 5.8 15.8-3.8 32.2-5.8 49.2-5.8 115.6 0 209.4 93.8 209.4 209.4 0 115.6-93.8 209.4-209.4 209.4z" fill="#A4CFF2" p-id="1759"></path><path d="M512 112.2C291.2 112.2 112.2 291.2 112.2 512S291.2 911.8 512 911.8 911.8 732.8 911.8 512 732.8 112.2 512 112.2z m0 609.2c-115.6 0-209.4-93.8-209.4-209.4 0-115.6 93.8-209.4 209.4-209.4S721.4 396.4 721.4 512c0 115.6-93.8 209.4-209.4 209.4z" fill="#D3E6F8" p-id="1760"></path><path d="M500.263651 301.652556a67.2 67.2 0 1 0 23.27825-132.368739 67.2 67.2 0 1 0-23.27825 132.368739Z" fill="#FD919E" p-id="1761"></path><path d="M451.903664 818.517711a67.2 67.2 0 1 0 120.305333-59.916499 67.2 67.2 0 1 0-120.305333 59.916499Z" fill="#FD919E" p-id="1762"></path><path d="M777.599962 578.151399a67.2 67.2 0 1 0 21.798256-132.620497 67.2 67.2 0 1 0-21.798256 132.620497Z" fill="#FD919E" p-id="1763"></path><path d="M173.512544 538.243807a67.2 67.2 0 1 0 123.768949-52.389 67.2 67.2 0 1 0-123.768949 52.389Z" fill="#FD919E" p-id="1764"></path><path d="M316.4 316.4m-67.2 0a67.2 67.2 0 1 0 134.4 0 67.2 67.2 0 1 0-134.4 0Z" fill="#FD919E" p-id="1765"></path><path d="M707.6 707.6m-67.2 0a67.2 67.2 0 1 0 134.4 0 67.2 67.2 0 1 0-134.4 0Z" fill="#FD919E" p-id="1766"></path><path d="M707.6 316.4m-67.2 0a67.2 67.2 0 1 0 134.4 0 67.2 67.2 0 1 0-134.4 0Z" fill="#FD919E" p-id="1767"></path><path d="M316.4 707.6m-67.2 0a67.2 67.2 0 1 0 134.4 0 67.2 67.2 0 1 0-134.4 0Z" fill="#FD919E" p-id="1768"></path><path d="M512 1024c-136.8 0-265.4-53.2-362-150C53.2 777.4 0 648.8 0 512S53.2 246.6 150 150C246.6 53.2 375.2 0 512 0s265.4 53.2 362 150c96.8 96.8 150 225.2 150 362s-53.2 265.4-150 362c-96.6 96.8-225.2 150-362 150z m0-1000.6c-130.4 0-253.2 50.8-345.4 143C74.2 258.8 23.4 381.6 23.4 512s50.8 253.2 143 345.4c92.2 92.2 215 143 345.4 143s253.2-50.8 345.4-143c92.2-92.2 143-215 143-345.4s-50.8-253.2-143-345.4c-92-92.4-214.8-143.2-345.2-143.2z" fill="#4C4372" p-id="1769"></path><path d="M512 923.4c-226.8 0-411.4-184.6-411.4-411.4S285.2 100.6 512 100.6 923.4 285.2 923.4 512 738.8 923.4 512 923.4zM512 124C298 124 124 298 124 512s174 388 388 388 388-174 388-388S726 124 512 124z" fill="#4C4372" p-id="1770"></path><path d="M512 733c-121.8 0-221-99.2-221-221S390.2 291 512 291 733 390.2 733 512 633.8 733 512 733z m0-418.6c-109 0-197.6 88.6-197.6 197.6s88.6 197.6 197.6 197.6 197.6-88.6 197.6-197.6-88.6-197.6-197.6-197.6z" fill="#4C4372" p-id="1771"></path><path d="M512 733c-121.8 0-221-99.2-221-221S390.2 291 512 291 733 390.2 733 512 633.8 733 512 733z m0-418.6c-109 0-197.6 88.6-197.6 197.6s88.6 197.6 197.6 197.6 197.6-88.6 197.6-197.6-88.6-197.6-197.6-197.6z" fill="#4C4372" p-id="1772"></path><path d="M512 314.4c-43.6 0-79-35.4-79-79s35.4-79 79-79 79 35.4 79 79-35.4 79-79 79z m0-134.4c-30.6 0-55.4 24.8-55.4 55.4s24.8 55.4 55.4 55.4c30.6 0 55.4-24.8 55.4-55.4S542.6 180 512 180zM512 867.4c-43.6 0-79-35.4-79-79s35.4-79 79-79 79 35.4 79 79-35.4 79-79 79z m0-134.4c-30.6 0-55.4 24.8-55.4 55.4 0 30.6 24.8 55.4 55.4 55.4 30.6 0 55.4-24.8 55.4-55.4 0-30.4-24.8-55.4-55.4-55.4zM788.6 591c-43.6 0-79-35.4-79-79s35.4-79 79-79 79 35.4 79 79-35.6 79-79 79z m0-134.4c-30.6 0-55.4 24.8-55.4 55.4s24.8 55.4 55.4 55.4c30.6 0 55.4-24.8 55.4-55.4s-25-55.4-55.4-55.4zM235.4 591c-43.6 0-79-35.4-79-79s35.4-79 79-79 79 35.4 79 79-35.4 79-79 79z m0-134.4c-30.6 0-55.4 24.8-55.4 55.4s24.8 55.4 55.4 55.4 55.4-24.8 55.4-55.4-24.8-55.4-55.4-55.4zM316.4 395.4c-20.2 0-40.4-7.6-55.8-23-15-15-23.2-34.8-23.2-55.8s8.2-41 23.2-55.8c30.8-30.8 80.8-30.8 111.6 0 30.8 30.8 30.8 80.8 0 111.6-15.2 15.2-35.6 23-55.8 23z m0-134.4c-14.2 0-28.4 5.4-39.2 16.2-10.4 10.4-16.2 24.4-16.2 39.2 0 14.8 5.8 28.8 16.2 39.2 10.4 10.4 24.4 16.2 39.2 16.2 14.8 0 28.8-5.8 39.2-16.2 10.4-10.4 16.2-24.4 16.2-39.2 0-14.8-5.8-28.8-16.2-39.2-10.8-10.8-25-16.2-39.2-16.2zM707.6 786.4c-20.2 0-40.4-7.6-55.8-23-30.8-30.8-30.8-80.8 0-111.6 30.8-30.8 80.8-30.8 111.6 0 15 15 23.2 34.8 23.2 55.8s-8.2 41-23.2 55.8c-15.4 15.4-35.6 23-55.8 23z m0-134.4c-14.8 0-28.8 5.8-39.2 16.2-10.4 10.4-16.2 24.4-16.2 39.2 0 14.8 5.8 28.8 16.2 39.2 21.6 21.6 56.8 21.6 78.4 0 10.4-10.4 16.2-24.4 16.2-39.2 0-14.8-5.8-28.8-16.2-39.2-10.6-10.4-24.4-16.2-39.2-16.2zM707.6 395.4c-20.2 0-40.4-7.6-55.8-23-30.8-30.8-30.8-80.8 0-111.6 30.8-30.8 80.8-30.8 111.6 0 15 15 23.2 34.8 23.2 55.8s-8.2 40.8-23.2 55.8c-15.4 15.2-35.6 23-55.8 23z m0-134.4c-14.2 0-28.4 5.4-39.2 16.2-10.4 10.4-16.2 24.4-16.2 39.2 0 14.8 5.8 28.8 16.2 39.2 10.4 10.4 24.4 16.2 39.2 16.2 14.8 0 28.8-5.8 39.2-16.2 10.4-10.4 16.2-24.4 16.2-39.2 0-14.8-5.8-28.8-16.2-39.2-10.8-10.8-25-16.2-39.2-16.2zM316.4 786.4c-20.2 0-40.4-7.6-55.8-23-15-15-23.2-34.8-23.2-55.8s8.2-40.8 23.2-55.8c30.8-30.8 80.8-30.8 111.6 0 30.8 30.8 30.8 80.8 0 111.6-15.2 15.4-35.6 23-55.8 23z m0-134.4c-14.8 0-28.8 5.8-39.2 16.2-10.4 10.4-16.2 24.4-16.2 39.2 0 14.8 5.8 28.8 16.2 39.2 21.6 21.6 56.8 21.6 78.4 0 10.4-10.4 16.2-24.4 16.2-39.2 0-14.8-5.8-28.8-16.2-39.2-10.4-10.4-24.4-16.2-39.2-16.2z" fill="#4C4372" p-id="1773"></path><path d="M512 124c-6.4 0-11.8-5.2-11.8-11.8V11.8c0-6.4 5.2-11.8 11.8-11.8 6.4 0 11.8 5.2 11.8 11.8v100.6c0 6.4-5.4 11.6-11.8 11.6zM512 1024c-6.4 0-11.8-5.2-11.8-11.8v-100.6c0-6.4 5.2-11.8 11.8-11.8 6.4 0 11.8 5.2 11.8 11.8v100.6c0 6.6-5.4 11.8-11.8 11.8z" fill="#4C4372" p-id="1774"></path><path d="M794.6 241c-3 0-6-1.2-8.2-3.4-4.6-4.6-4.6-12 0-16.6L857.4 150c4.6-4.6 12-4.6 16.6 0 4.6 4.6 4.6 12 0 16.6l-71.2 71.2c-2.2 2.2-5.2 3.2-8.2 3.2zM158.2 877.4c-3 0-6-1.2-8.2-3.4-4.6-4.6-4.6-12 0-16.6l71.2-71.2c4.6-4.6 12-4.6 16.6 0 4.6 4.6 4.6 12 0 16.6L166.6 874c-2.4 2.4-5.4 3.4-8.4 3.4z" fill="#4C4372" p-id="1775"></path><path d="M1012.2 523.8h-100.6c-6.4 0-11.8-5.2-11.8-11.8 0-6.4 5.2-11.8 11.8-11.8h100.6c6.4 0 11.8 5.2 11.8 11.8 0 6.4-5.2 11.8-11.8 11.8zM112.2 523.8H11.8c-6.4 0-11.8-5.2-11.8-11.8 0-6.4 5.2-11.8 11.8-11.8h100.6c6.4 0 11.8 5.2 11.8 11.8-0.2 6.4-5.4 11.8-12 11.8z" fill="#4C4372" p-id="1776"></path><path d="M865.8 877.4c-3 0-6-1.2-8.2-3.4l-71.2-71.2c-4.6-4.6-4.6-12 0-16.6 4.6-4.6 12-4.6 16.6 0l71.2 71.2c4.6 4.6 4.6 12 0 16.6-2.4 2.4-5.4 3.4-8.4 3.4zM229.4 241c-3 0-6-1.2-8.2-3.4L150 166.6c-4.6-4.6-4.6-12 0-16.6 4.6-4.6 12-4.6 16.6 0l71.2 71.2c4.6 4.6 4.6 12 0 16.6-2.4 2.2-5.4 3.2-8.4 3.2z" fill="#4C4372" p-id="1777"></path></svg>